<?xml version="1.0" standalone="no"?>
<!DOCTYPE svg PUBLIC "-//W3C//DTD SVG 20010904//EN"
 "http://www.w3.org/TR/2001/REC-SVG-20010904/DTD/svg10.dtd">
<svg version="1.0" xmlns="http://www.w3.org/2000/svg"
 width="1080.000000pt" height="1080.000000pt" viewBox="0 0 1080.000000 1080.000000"
 preserveAspectRatio="xMidYMid meet">

<g transform="translate(0.000000,1080.000000) scale(0.100000,-0.100000)"
fill="#000000" stroke="none">
<path d="M7368 10260 c-46 -14 -95 -49 -138 -98 l-42 -47 -66 3 c-149 7 -237
-67 -249 -209 -5 -55 -6 -57 -44 -69 -130 -43 -173 -169 -116 -341 13 -41 27
-96 31 -122 13 -104 86 -206 177 -250 l48 -23 -94 -87 c-51 -48 -96 -87 -98
-87 -3 0 -22 24 -43 53 -21 28 -39 54 -41 56 -2 3 -8 0 -14 -6 -7 -7 14 -45
72 -124 45 -63 84 -116 86 -118 2 -3 8 0 14 6 8 8 2 24 -22 58 l-34 48 105 98
104 98 48 -6 48 -6 0 56 0 56 42 12 c85 22 144 -17 173 -114 24 -81 1 -134
-80 -193 l-29 -21 10 -87 c14 -109 51 -186 112 -233 55 -41 108 -57 202 -57
69 -1 170 -27 170 -45 0 -6 -278 -131 -290 -131 -4 0 -24 36 -45 80 -22 44
-44 79 -50 77 -5 -3 -47 -12 -93 -22 -132 -29 -184 -4 -268 130 -48 78 -46 76
-146 99 -23 5 -28 12 -28 36 0 16 5 41 10 55 l10 27 -397 -7 c-418 -7 -993 4
-1488 30 -858 45 -1775 173 -2615 365 -247 56 -694 178 -857 234 l-73 25 0
-1400 0 -1399 2700 0 c2563 0 2701 1 2707 18 3 9 86 200 184 424 336 764 347
786 437 861 88 74 222 116 325 102 67 -10 178 -67 222 -116 65 -73 89 -138 93
-261 7 -178 -2 -201 -353 -903 -168 -335 -343 -679 -390 -763 -47 -85 -85
-156 -85 -158 0 -2 16 -4 35 -4 l35 0 0 -258 c0 -234 2 -260 18 -275 14 -13
53 -16 237 -19 l220 -3 -1 45 c-1 25 -6 173 -11 330 -8 234 -7 288 4 300 11
13 15 13 27 0 13 -14 125 -273 221 -509 61 -151 61 -151 94 -151 25 0 29 -5
47 -62 14 -47 19 -93 19 -178 0 -109 -2 -118 -30 -169 -16 -30 -47 -67 -69
-82 -79 -58 -81 -59 -971 -234 -487 -97 -724 -146 -840 -175 -180 -45 -316
-143 -381 -276 -33 -66 -38 -84 -42 -172 -9 -187 12 -234 348 -777 341 -549
852 -1368 862 -1379 5 -6 12 -6 19 1 8 8 -68 136 -267 454 -388 621 -804 1294
-841 1359 -172 309 -94 600 194 720 101 41 265 77 1317 285 392 77 491 100
548 127 154 71 221 215 188 409 -7 41 -19 91 -26 111 l-13 37 677 3 c372 2
685 7 694 12 10 4 20 16 23 26 3 11 -28 151 -69 312 -126 495 -251 884 -387
1203 -75 179 -255 541 -343 694 l-66 113 0 621 0 620 -77 -6 c-43 -4 -113 -9
-155 -13 l-78 -7 -1 49 c-1 27 -4 63 -8 79 -6 25 -1 37 26 71 56 70 77 129 77
219 1 65 -5 92 -27 147 -25 61 -27 70 -16 113 16 63 5 154 -25 214 -29 55 -95
118 -156 146 -34 16 -48 32 -75 85 -85 166 -241 236 -410 186 -46 -14 -50 -14
-89 9 -84 48 -220 69 -298 45z m-4753 -1439 c634 -121 1387 -212 2080 -251
175 -9 181 -10 203 -35 l22 -26 0 -734 c0 -517 -3 -741 -11 -758 -6 -14 -22
-30 -36 -36 -17 -8 -368 -11 -1233 -11 -865 0 -1216 3 -1233 11 -14 6 -30 22
-36 36 -8 17 -11 282 -11 908 l0 885 21 21 c25 25 56 24 234 -10z m3384 -327
c21 -26 21 -36 21 -559 0 -523 0 -533 -21 -559 l-20 -26 -273 0 c-219 0 -276
3 -292 14 -18 14 -19 33 -22 562 l-3 547 22 24 22 23 273 0 273 0 20 -26z
m761 4 c20 -21 20 -32 20 -565 0 -530 0 -543 -20 -563 -19 -19 -33 -20 -293
-20 -266 0 -274 1 -293 21 -18 20 -19 44 -19 564 0 520 1 544 19 564 19 20 27
21 292 21 268 0 274 0 294 -22z"/>
<path d="M2397 8814 c-4 -4 -7 -406 -7 -894 0 -847 1 -888 18 -903 17 -16 117
-17 1235 -17 1092 0 1217 2 1231 16 14 14 16 96 16 753 0 660 -2 740 -16 752
-10 8 -69 15 -182 20 -565 25 -1317 112 -1949 226 -291 52 -335 58 -346 47z
m303 -318 c117 -23 304 -46 428 -53 84 -4 112 -9 112 -20 0 -17 -45 -17 -235
2 -137 13 -384 51 -393 60 -4 3 6 25 11 25 1 0 36 -6 77 -14z m130 -165 c74
-11 197 -25 273 -32 108 -9 137 -15 137 -26 0 -16 -12 -16 -250 8 -102 10
-327 44 -363 55 -32 10 -6 26 32 20 20 -3 97 -15 171 -25z m300 -246 c176 -18
386 -32 623 -41 146 -5 177 -9 177 -21 0 -12 -18 -14 -117 -9 -65 3 -181 8
-258 11 -136 6 -542 40 -617 52 -24 3 -38 11 -38 20 0 11 10 13 43 9 23 -4
107 -13 187 -21z m-10 -226 c74 -5 287 -13 472 -16 267 -5 338 -9 342 -19 3
-7 1 -16 -5 -19 -23 -15 -1009 32 -1026 48 -13 14 11 25 45 21 20 -2 98 -9
172 -15z m265 -229 c487 -16 545 -20 545 -38 0 -13 -17 -14 -127 -9 -71 4
-274 11 -453 17 -404 13 -450 17 -450 36 0 13 15 14 93 9 50 -3 227 -10 392
-15z m-155 -165 c0 -13 -41 -15 -305 -15 -264 0 -305 2 -305 15 0 13 41 15
305 15 264 0 305 -2 305 -15z m0 -150 c0 -13 -41 -15 -305 -15 -264 0 -305 2
-305 15 0 13 41 15 305 15 264 0 305 -2 305 -15z"/>
<path d="M6864 8946 c-10 -26 4 -48 28 -44 17 2 23 10 23 28 0 18 -6 26 -23
28 -13 2 -25 -3 -28 -12z"/>
<path d="M7040 8716 c-5 -14 -21 -32 -35 -42 -24 -16 -35 -44 -16 -44 28 0
100 88 84 104 -12 12 -24 6 -33 -18z"/>
<path d="M3660 6042 l0 -39 -227 -6 c-124 -4 -705 -7 -1290 -7 l-1063 0 0 -65
0 -65 662 -2 663 -3 3 -2562 c1 -1410 -1 -2563 -5 -2563 -5 0 -122 -13 -260
-29 -188 -22 -262 -34 -290 -48 -46 -24 -91 -85 -100 -136 l-6 -37 1278 0
1278 0 -7 33 c-10 52 -57 118 -99 140 -29 15 -99 26 -305 47 -147 16 -268 29
-270 29 -1 1 -1 1154 0 2564 l3 2562 1213 5 1212 5 -172 65 -173 65 -207 3
-207 3 -3 37 -3 37 -812 3 -813 2 0 -38z"/>
<path d="M8787 4523 c-16 -15 1 -27 153 -103 131 -66 162 -78 166 -65 4 9 5
17 3 19 -5 5 -308 156 -312 156 -2 0 -7 -3 -10 -7z"/>
<path d="M9464 4428 c-20 -35 -39 -66 -41 -69 -1 -4 4 -9 12 -13 10 -3 27 15
54 61 37 62 42 83 21 83 -5 0 -25 -28 -46 -62z"/>
<path d="M6920 3702 c0 -10 164 -370 172 -377 5 -5 20 133 34 303 l7 82 -107
0 c-58 0 -106 -4 -106 -8z"/>
<path d="M8553 1558 c-45 -49 -84 -110 -159 -252 -96 -183 -138 -226 -222
-226 -45 0 -56 10 -82 77 -16 43 -19 45 -23 23 -22 -107 -42 -174 -81 -275
-25 -64 -46 -123 -46 -131 0 -8 11 -26 26 -40 19 -20 31 -24 52 -19 15 4 124
70 242 148 413 272 391 253 410 370 14 87 -1 179 -42 272 -18 39 -34 73 -38
78 -3 4 -20 -8 -37 -25z"/>
<path d="M7635 1163 c-72 -86 -138 -166 -147 -178 -12 -16 -21 -63 -32 -166
-8 -79 -13 -145 -11 -147 7 -7 360 219 387 248 15 16 32 48 38 72 15 54 -4
129 -64 246 l-42 83 -129 -158z"/>
<path d="M7125 968 c-4 -17 -38 -109 -76 -205 -97 -244 -108 -310 -55 -334 29
-14 69 2 204 83 l102 62 0 46 c0 26 3 81 6 122 l7 75 -36 7 c-44 8 -76 44
-107 120 -12 31 -26 56 -30 56 -5 0 -12 -14 -15 -32z"/>
</g>
</svg>
